<svg width="25" height="25" viewBox="0 0 25 25" fill="none" xmlns="http://www.w3.org/2000/svg">
<path d="M0.5 2.5C0.5 1.54305 0.5 1.06457 0.82295 0.767464C1.1459 0.470355 1.59656 0.507983 2.49787 0.58324C8.13134 1.05361 13.443 3.50187 17.4705 7.52942C21.0217 11.0806 23.3451 15.6301 24.1675 20.5183C24.4552 22.2282 24.599 23.0831 23.9998 23.7915C23.4006 24.4999 22.4338 24.5 20.5 24.5L4.50001 24.5C2.61439 24.5 1.67158 24.5 1.08579 23.9142C0.5 23.3284 0.5 22.3856 0.5 20.5V2.5Z" fill="url(#paint0_linear_1094_2652)"/>
<path d="M24.5 2.5C24.5 1.54305 24.5 1.06457 24.177 0.767464C23.8541 0.470355 23.4034 0.507983 22.5021 0.58324C16.8687 1.05361 11.557 3.50187 7.52946 7.52942C3.97826 11.0806 1.65487 15.6301 0.832499 20.5183C0.54483 22.2282 0.400995 23.0831 1.00018 23.7915C1.59937 24.4999 2.56625 24.5 4.5 24.5L20.5 24.5C22.3856 24.5 23.3284 24.5 23.9142 23.9142C24.5 23.3284 24.5 22.3856 24.5 20.5V2.5Z" fill="url(#paint1_linear_1094_2652)"/>
<circle cx="3.55445" cy="12.2818" r="1.30909" fill="white"/>
<circle cx="21.4456" cy="12.2818" r="1.30909" fill="white"/>
<path fill-rule="evenodd" clip-rule="evenodd" d="M18.4529 18.4529C20.0896 16.8163 21.0091 14.5964 21.0091 12.2818H21.4454C21.4454 14.7122 20.48 17.043 18.7615 18.7615C17.043 20.48 14.7121 21.4455 12.2818 21.4455C9.85145 21.4455 7.52065 20.48 5.80213 18.7615C4.08362 17.043 3.11816 14.7122 3.11816 12.2818H3.55453C3.55453 14.5964 4.47401 16.8163 6.11069 18.4529C7.74737 20.0896 9.96718 21.0091 12.2818 21.0091C14.5964 21.0091 16.8162 20.0896 18.4529 18.4529Z" fill="white"/>
<defs>
<linearGradient id="paint0_linear_1094_2652" x1="24.5" y1="18.3909" x2="0.5" y2="0.5" gradientUnits="userSpaceOnUse">
<stop stop-color="#D72339"/>
<stop offset="1" stop-color="#FF813B"/>
</linearGradient>
<linearGradient id="paint1_linear_1094_2652" x1="-2.38" y1="9.74" x2="24.5" y2="18.38" gradientUnits="userSpaceOnUse">
<stop stop-color="#D72339"/>
<stop offset="1" stop-color="#F23B51"/>
</linearGradient>
</defs>
</svg>
